<svg width="46" height="40" viewBox="0 0 46 40" fill="none" xmlns="http://www.w3.org/2000/svg">
<path fill-rule="evenodd" clip-rule="evenodd" d="M30.8482 34.1291C29.0993 34.1291 27.5166 33.1748 26.6948 31.6614H13.0565C11.8105 31.6614 10.7969 30.6477 10.7969 29.4018C10.7969 28.1558 11.8105 27.1422 13.0565 27.1422H26.6949C27.5168 25.6291 29.0996 24.6748 30.8483 24.6748C32.7576 24.6748 34.4691 25.8122 35.2083 27.5727C35.2994 27.7896 35.2759 28.0376 35.1457 28.2336C35.0154 28.4294 34.7959 28.5472 34.5607 28.5472H31.5507V30.2566H34.5605C34.7958 30.2566 35.0153 30.3743 35.1455 30.5703C35.2758 30.7661 35.2993 31.0142 35.2082 31.231C34.4689 32.9915 32.7576 34.1291 30.8482 34.1291ZM13.0565 28.5471C12.5852 28.5471 12.2018 28.9305 12.2018 29.4018C12.2018 29.8731 12.5852 30.2565 13.0565 30.2565H27.1359C27.4188 30.2565 27.6741 30.4261 27.7836 30.687C28.3032 31.9246 29.5061 32.7242 30.8482 32.7242C31.7931 32.7242 32.6689 32.3279 33.286 31.6614H30.8482C30.4603 31.6614 30.1458 31.3469 30.1458 30.959V27.8447C30.1458 27.4568 30.4603 27.1422 30.8482 27.1422H33.2859C32.6688 26.4759 31.793 26.0797 30.8482 26.0797C29.5061 26.0797 28.3032 26.8792 27.7836 28.1166C27.6741 28.3774 27.4188 28.5471 27.1359 28.5471H13.0565Z" fill="black"/>
<path fill-rule="evenodd" clip-rule="evenodd" d="M41.8411 15.9573C41.5703 15.9573 41.3122 15.7997 41.197 15.5356L38.5421 9.44987C38.495 9.34194 38.3882 9.27206 38.2701 9.27206H7.79295C7.6749 9.27206 7.56807 9.34194 7.52088 9.45011L4.866 15.5357C4.71088 15.8913 4.29685 16.0538 3.94124 15.8986C3.58563 15.7435 3.4232 15.3295 3.57832 14.9739L6.2332 8.88816C6.50393 8.26792 7.11612 7.86719 7.79283 7.86719H38.2699C38.9466 7.86719 39.5588 8.26792 39.8294 8.88804L42.4844 14.9739C42.6395 15.3295 42.4771 15.7435 42.1215 15.8986C42.0303 15.9384 41.9349 15.9573 41.8411 15.9573Z" fill="black"/>
<path fill-rule="evenodd" clip-rule="evenodd" d="M34.2026 20.4088H11.8587C11.4708 20.4088 11.1562 20.0943 11.1562 19.7063C11.1562 19.3184 11.4708 19.0039 11.8587 19.0039H34.2026C34.5905 19.0039 34.905 19.3184 34.905 19.7063C34.905 20.0943 34.5906 20.4088 34.2026 20.4088Z" fill="black"/>
<path fill-rule="evenodd" clip-rule="evenodd" d="M39.141 39.8002H6.9192C5.91993 39.8002 5.07822 39.0518 4.96139 38.0594C4.96054 38.052 4.95981 38.0446 4.95907 38.0372L3.39322 19.7663C3.36017 19.3797 3.64663 19.0396 4.0331 19.0066C4.41981 18.9731 4.75981 19.26 4.79298 19.6464L6.35773 37.904C6.39529 38.1847 6.63505 38.3953 6.9192 38.3953H39.141C39.4252 38.3953 39.6649 38.1847 39.7025 37.9039L41.2673 19.6464C41.3004 19.2598 41.641 18.9734 42.0271 19.0066C42.4136 19.0397 42.7001 19.3798 42.667 19.7663L41.101 38.0372C41.1004 38.0445 41.0997 38.0519 41.0988 38.0594C40.9819 39.0518 40.1403 39.8002 39.141 39.8002Z" fill="black"/>
<path fill-rule="evenodd" clip-rule="evenodd" d="M44.8064 20.4086H37.4908C37.1029 20.4086 36.7882 20.0941 36.7882 19.7061C36.7882 19.3182 37.1025 19.0037 37.4905 19.0037H44.104V15.9572H1.95761V19.0037H8.57078C8.95871 19.0037 9.27322 19.3182 9.27322 19.7061C9.27322 20.0941 8.95871 20.4086 8.57078 20.4086H1.25517C0.867246 20.4086 0.552734 20.0941 0.552734 19.7061V15.2547C0.552734 14.8668 0.867246 14.5522 1.25517 14.5522H44.8064C45.1943 14.5522 45.5088 14.8668 45.5088 15.2547V19.7061C45.5088 20.0941 45.1943 20.4086 44.8064 20.4086Z" fill="black"/>
<path fill-rule="evenodd" clip-rule="evenodd" d="M11.8595 21.6033H8.57158C8.18365 21.6033 7.86914 21.2888 7.86914 20.9009V15.2547C7.86914 14.8668 8.18365 14.5522 8.57158 14.5522C8.95951 14.5522 9.27402 14.8668 9.27402 15.2547V20.1985H11.1571V15.2547C11.1571 14.8668 11.4716 14.5522 11.8595 14.5522C12.2474 14.5522 12.5619 14.8668 12.5619 15.2547V20.9009C12.5619 21.289 12.2476 21.6033 11.8595 21.6033Z" fill="black"/>
<path fill-rule="evenodd" clip-rule="evenodd" d="M37.4924 21.6033H34.2044C33.8165 21.6033 33.502 21.2888 33.502 20.9009V15.2547C33.502 14.8668 33.8165 14.5522 34.2044 14.5522C34.5923 14.5522 34.9068 14.8668 34.9068 15.2547V20.1985H36.79V15.2547C36.79 14.8668 37.1045 14.5522 37.4924 14.5522C37.8804 14.5522 38.1949 14.8668 38.1949 15.2547V20.9009C38.1949 21.289 37.8804 21.6033 37.4924 21.6033Z" fill="black"/>
<path fill-rule="evenodd" clip-rule="evenodd" d="M31.2806 9.2722C30.9502 9.2722 30.6558 9.03805 30.5915 8.70171L29.474 2.8633C29.4721 2.85269 29.4702 2.84208 29.4687 2.83147C29.3827 2.23476 28.863 1.78476 28.26 1.78476H17.789C17.186 1.78476 16.6663 2.23476 16.5804 2.83147C16.5789 2.84159 16.5772 2.85183 16.5754 2.86183L15.4709 8.70025C15.3988 9.08147 15.0312 9.33208 14.6501 9.25988C14.2689 9.18781 14.0184 8.82025 14.0905 8.43915L15.1924 2.61464C15.2856 1.9961 15.5967 1.43061 16.0699 1.02086C16.5472 0.607566 17.1577 0.379883 17.7891 0.379883H28.2601C28.8915 0.379883 29.5021 0.607566 29.9794 1.02086C30.4523 1.43049 30.7634 1.99561 30.8568 2.61379L31.9715 8.43769C32.0444 8.81878 31.7946 9.18671 31.4135 9.25964C31.3688 9.26805 31.3243 9.2722 31.2806 9.2722Z" fill="black"/>
<path fill-rule="evenodd" clip-rule="evenodd" d="M18.0569 9.27217C18.013 9.27217 17.9685 9.26803 17.9238 9.25949C17.5428 9.18644 17.2932 8.81827 17.3662 8.4373L18.1602 4.29815C18.2236 3.9673 18.5132 3.72803 18.8501 3.72803H27.2097C27.5467 3.72803 27.8361 3.96717 27.8996 4.29815L28.6936 8.4373C28.7667 8.81827 28.5172 9.18644 28.1361 9.25949C27.7551 9.33266 27.3869 9.0829 27.3139 8.70205L26.6291 5.13303H19.4306L18.746 8.70205C18.6815 9.03827 18.3872 9.27217 18.0569 9.27217Z" fill="black"/>
</svg>
