<svg width="40" height="40" viewBox="0 0 40 40" fill="none" xmlns="http://www.w3.org/2000/svg" stroke="#E58233">
<path d="M36.2324 0.625H3.10742C1.5568 0.625 0.294922 1.88656 0.294922 3.4375V15.3125C0.294922 16.8634 1.5568 18.125 3.10742 18.125H23.4199C23.7649 18.125 24.0449 17.845 24.0449 17.5C24.0449 17.155 23.7649 16.875 23.4199 16.875H6.23242V13.125C6.23242 12.4356 6.79305 11.875 7.48242 11.875H23.1074C23.4524 11.875 23.7324 11.595 23.7324 11.25C23.7324 10.905 23.4524 10.625 23.1074 10.625H7.48242C6.10398 10.625 4.98242 11.7466 4.98242 13.125V16.875H3.10742C2.24586 16.875 1.54492 16.1741 1.54492 15.3125V3.4375C1.54492 2.57594 2.24586 1.875 3.10742 1.875H36.2324C37.094 1.875 37.7949 2.57594 37.7949 3.4375V8.125C37.7949 8.47 38.0749 8.75 38.4199 8.75C38.7649 8.75 39.0449 8.47 39.0449 8.125V3.4375C39.0449 1.88656 37.783 0.625 36.2324 0.625Z" fill="#E58233"/>
<path d="M8.10742 13.75C7.76242 13.75 7.48242 14.03 7.48242 14.375C7.48242 14.72 7.76242 15 8.10742 15H22.7949C23.1399 15 23.4199 14.72 23.4199 14.375C23.4199 14.03 23.1399 13.75 22.7949 13.75H8.10742Z" fill="#E58233"/>
<path d="M6.23242 3.125C5.54305 3.125 4.98242 3.68562 4.98242 4.375V5.9375C4.98242 6.62687 5.54305 7.1875 6.23242 7.1875H11.8574C12.5468 7.1875 13.1074 6.62687 13.1074 5.9375V4.375C13.1074 3.68562 12.5468 3.125 11.8574 3.125H6.23242ZM6.23242 5.9375V4.375H11.8574L11.858 5.9375H6.23242Z" fill="#E58233"/>
<path d="M34.3574 5C34.3574 4.48312 33.9368 4.0625 33.4199 4.0625C32.903 4.0625 32.4824 4.48312 32.4824 5C32.4824 5.51688 32.903 5.9375 33.4199 5.9375C33.9368 5.9375 34.3574 5.51688 34.3574 5Z" fill="#E58233"/>
<path d="M30.2949 5.9375C30.8118 5.9375 31.2324 5.51688 31.2324 5C31.2324 4.48312 30.8118 4.0625 30.2949 4.0625C29.778 4.0625 29.3574 4.48312 29.3574 5C29.3574 5.51688 29.778 5.9375 30.2949 5.9375Z" fill="#E58233"/>
<path d="M28.1074 5C28.1074 4.48312 27.6868 4.0625 27.1699 4.0625C26.653 4.0625 26.2324 4.48312 26.2324 5C26.2324 5.51688 26.653 5.9375 27.1699 5.9375C27.6868 5.9375 28.1074 5.51688 28.1074 5Z" fill="#E58233"/>
<path d="M39.0449 14.0625C39.0449 11.1412 37.2987 8.53312 34.5959 7.41812C34.4034 7.33874 34.1834 7.36031 34.0099 7.47656C33.8365 7.59249 33.7324 7.78749 33.7324 7.99593V13.75H29.9824V7.99562C29.9824 7.78718 29.8784 7.59218 29.7049 7.47624C29.5315 7.35999 29.3118 7.33843 29.119 7.41781C26.4162 8.53281 24.6699 11.1412 24.6699 14.0625C24.6699 16.8422 26.2509 19.3381 28.7324 20.5341V22.1875H24.5755C23.2605 22.1875 22.0237 22.6997 21.0937 23.6297C20.6215 24.1019 19.9934 24.3619 19.3259 24.3619H17.7949V23.4375C17.7949 22.7481 17.2343 22.1875 16.5449 22.1875H0.919922C0.574922 22.1875 0.294922 22.4675 0.294922 22.8125C0.294922 23.1575 0.574922 23.4375 0.919922 23.4375H16.5449V34.6875H0.919922C0.574922 34.6875 0.294922 34.9675 0.294922 35.3125C0.294922 35.6575 0.574922 35.9375 0.919922 35.9375H16.5449C17.2343 35.9375 17.7949 35.3769 17.7949 34.6875V33.75H19.313C19.9809 33.75 20.6087 34.01 21.094 34.4953C22.024 35.4253 23.2605 35.9375 24.5755 35.9375H28.7324V36.1644C28.7324 37.855 30.0143 39.2625 31.6505 39.3681C31.7209 39.3728 31.7909 39.375 31.8605 39.375C32.6574 39.375 33.4084 39.0791 33.9943 38.53C34.6221 37.9413 34.9824 37.1103 34.9824 36.2497V35.9372H35.6074C36.6415 35.9372 37.4824 35.0963 37.4824 34.0622V25.9375C37.4824 25.1116 36.9452 24.4103 36.2021 24.1606C36.2199 24.0259 36.2324 23.8897 36.2324 23.75V23.4375C36.2324 22.7481 35.6718 22.1875 34.9824 22.1875V20.5341C37.464 19.3381 39.0449 16.8419 39.0449 14.0625ZM24.5755 34.6875C23.5943 34.6875 22.6715 34.3053 21.9646 33.5984C21.2562 32.89 20.3146 32.5 19.313 32.5H17.7949V25.6119H19.3259C20.3277 25.6119 21.2693 25.2216 21.9774 24.5134C22.6715 23.8197 23.5943 23.4375 24.5755 23.4375H34.9824V23.75C34.9824 24.7841 34.1415 25.625 33.1074 25.625H29.3574C29.0124 25.625 28.7324 25.905 28.7324 26.25C28.7324 27.9731 27.3305 29.375 25.6074 29.375C24.898 29.375 24.2296 29.1434 23.674 28.7053C23.403 28.4916 23.0099 28.5381 22.7962 28.8091C22.5824 29.0803 22.6287 29.4731 22.8999 29.6869C23.6784 30.3006 24.6146 30.625 25.6074 30.625C26.8312 30.625 27.9377 30.1184 28.7324 29.3059V34.6875H24.5755ZM33.7324 36.25C33.7324 36.7738 33.5218 37.2597 33.1393 37.6184C32.7571 37.9766 32.2565 38.155 31.7315 38.1209C30.7509 38.0575 29.9824 37.1981 29.9824 36.1644V26.875H30.9199V34.0625C30.9199 35.0966 31.7609 35.9375 32.7949 35.9375H33.7324V36.25ZM36.2324 25.9375V34.0625C36.2324 34.4072 35.9521 34.6875 35.6074 34.6875H32.7949C32.4502 34.6875 32.1699 34.4072 32.1699 34.0625V26.875H33.1074C34.2484 26.875 35.2452 26.2584 35.7909 25.3431C36.0459 25.4222 36.2324 25.6572 36.2324 25.9375ZM34.119 19.5512C33.8849 19.6478 33.7324 19.8759 33.7324 20.1291V22.1875H29.9824V20.1294C29.9824 19.8762 29.8299 19.6481 29.5959 19.5516C27.3627 18.63 25.9199 16.4756 25.9199 14.0625C25.9199 11.9766 26.998 10.0841 28.7324 9.01406V13.75C28.7324 14.4394 29.293 15 29.9824 15H33.7324C34.4218 15 34.9824 14.4394 34.9824 13.75V9.01375C36.7168 10.0837 37.7949 11.9762 37.7949 14.0622C37.7949 16.4756 36.3521 18.63 34.119 19.5512Z" fill="#E58233"/>
</svg>
