<svg width="41" height="42" viewBox="0 0 41 42" fill="none" xmlns="http://www.w3.org/2000/svg">
<path d="M18.3711 5.90625H11.1523C10.7894 5.90625 10.4961 5.61225 10.4961 5.25C10.4961 4.88775 10.7894 4.59375 11.1523 4.59375H18.3711C18.734 4.59375 19.0273 4.88775 19.0273 5.25C19.0273 5.61225 18.734 5.90625 18.3711 5.90625Z" fill="black"/>
<path d="M37.4023 41.3438H3.27734C1.46806 41.3438 -0.00390625 39.8718 -0.00390625 38.0625V5.25C-0.00390625 4.88775 0.289438 4.59375 0.652344 4.59375H5.24609C5.609 4.59375 5.90234 4.88775 5.90234 5.25C5.90234 5.61225 5.609 5.90625 5.24609 5.90625H1.30859V38.0625C1.30859 39.1479 2.19191 40.0312 3.27734 40.0312H37.4023C38.4878 40.0312 39.3711 39.1479 39.3711 38.0625V5.90625H37.4023C37.0394 5.90625 36.7461 5.61225 36.7461 5.25C36.7461 4.88775 37.0394 4.59375 37.4023 4.59375H40.0273C40.3903 4.59375 40.6836 4.88775 40.6836 5.25V38.0625C40.6836 39.8718 39.2116 41.3438 37.4023 41.3438Z" fill="black"/>
<path d="M31.4961 5.90625H24.2773C23.9144 5.90625 23.6211 5.61225 23.6211 5.25C23.6211 4.88775 23.9144 4.59375 24.2773 4.59375H31.4961C31.859 4.59375 32.1523 4.88775 32.1523 5.25C32.1523 5.61225 31.859 5.90625 31.4961 5.90625Z" fill="black"/>
<path d="M9.18359 8.53125H5.24609C4.88319 8.53125 4.58984 8.23725 4.58984 7.875V1.3125C4.58984 0.95025 4.88319 0.65625 5.24609 0.65625H9.18359C9.5465 0.65625 9.83984 0.95025 9.83984 1.3125V7.875C9.83984 8.23725 9.5465 8.53125 9.18359 8.53125ZM5.90234 7.21875H8.52734V1.96875H5.90234V7.21875Z" fill="black"/>
<path d="M22.3086 8.53125H18.3711C18.0082 8.53125 17.7148 8.23725 17.7148 7.875V1.3125C17.7148 0.95025 18.0082 0.65625 18.3711 0.65625H22.3086C22.6715 0.65625 22.9648 0.95025 22.9648 1.3125V7.875C22.9648 8.23725 22.6715 8.53125 22.3086 8.53125ZM19.0273 7.21875H21.6523V1.96875H19.0273V7.21875Z" fill="black"/>
<path d="M35.4336 8.53125H31.4961C31.1332 8.53125 30.8398 8.23725 30.8398 7.875V1.3125C30.8398 0.95025 31.1332 0.65625 31.4961 0.65625H35.4336C35.7965 0.65625 36.0898 0.95025 36.0898 1.3125V7.875C36.0898 8.23725 35.7965 8.53125 35.4336 8.53125ZM32.1523 7.21875H34.7773V1.96875H32.1523V7.21875Z" fill="black"/>
<path d="M40.0273 13.7812H0.652344C0.289438 13.7812 -0.00390625 13.4872 -0.00390625 13.125C-0.00390625 12.7627 0.289438 12.4688 0.652344 12.4688H40.0273C40.3903 12.4688 40.6836 12.7627 40.6836 13.125C40.6836 13.4872 40.3903 13.7812 40.0273 13.7812Z" fill="black"/>
<path d="M25.9442 24.2812H7.21484C6.51528 24.2812 5.85575 24.0076 5.35963 23.5115C4.86284 23.0153 4.58984 22.3565 4.58984 21.6562C4.58984 20.2086 5.76716 19.0312 7.21484 19.0312H25.9442C26.3071 19.0312 26.6005 19.3252 26.6005 19.6875C26.6005 20.0497 26.3071 20.3438 25.9442 20.3438H7.21484C6.491 20.3438 5.90234 20.9324 5.90234 21.6562C5.90234 22.006 6.03884 22.3355 6.28756 22.5835C6.53628 22.8316 6.86572 22.9688 7.21484 22.9688H25.9442C26.3071 22.9688 26.6005 23.2628 26.6005 23.625C26.6005 23.9872 26.3071 24.2812 25.9442 24.2812Z" fill="black"/>
<path d="M30.8558 27.5625C27.5752 27.5625 24.9062 24.9126 24.9062 21.6562C24.9062 18.3999 27.5752 15.75 30.8558 15.75C32.9775 15.75 34.9502 16.8814 36.0028 18.7031C36.1203 18.9066 36.1203 19.1566 36.0028 19.3594C35.8853 19.5628 35.6687 19.6875 35.4345 19.6875H31.497V23.625H35.4345C35.6687 23.625 35.8853 23.7497 36.0028 23.9531C36.1203 24.1566 36.1203 24.4066 36.0028 24.6094C34.9502 26.4305 32.9781 27.5625 30.8558 27.5625ZM30.8558 17.0625C28.2991 17.0625 26.2188 19.1231 26.2188 21.6562C26.2188 24.1894 28.2991 26.25 30.8558 26.25C32.083 26.25 33.2459 25.7657 34.0983 24.9375H30.8401C30.4772 24.9375 30.1838 24.6435 30.1838 24.2812V19.0312C30.1838 18.669 30.4772 18.375 30.8401 18.375H34.0983C33.2452 17.5468 32.083 17.0625 30.8558 17.0625Z" fill="black"/>
<path d="M33.4637 34.7812H14.7344C14.3715 34.7812 14.0781 34.4872 14.0781 34.125C14.0781 33.7628 14.3715 33.4688 14.7344 33.4688H33.4637C33.8129 33.4688 34.1423 33.3322 34.391 33.0835C34.6397 32.8348 34.7762 32.506 34.7762 32.1562C34.7762 31.4324 34.1876 30.8438 33.4637 30.8438H14.7344C14.3715 30.8438 14.0781 30.5497 14.0781 30.1875C14.0781 29.8252 14.3715 29.5312 14.7344 29.5312H33.4637C34.9114 29.5312 36.0887 30.7086 36.0887 32.1562C36.0887 32.8565 35.8157 33.5153 35.319 34.0115C34.8228 34.5076 34.1633 34.7812 33.4637 34.7812Z" fill="black"/>
<path d="M9.82491 38.0625C7.70326 38.0625 5.73057 36.9311 4.67795 35.1094C4.56048 34.9059 4.56048 34.6559 4.67795 34.4531C4.79541 34.2497 5.01198 34.125 5.24626 34.125H9.18376V30.1875H5.24626C5.01198 30.1875 4.79476 30.0628 4.67795 29.8594C4.56048 29.6559 4.56048 29.4059 4.67795 29.2031C5.73057 27.382 7.7026 26.25 9.82491 26.25C13.1055 26.25 15.7745 28.8999 15.7745 32.1562C15.7745 35.4126 13.1055 38.0625 9.82491 38.0625ZM6.58238 35.4375C7.43551 36.2657 8.59773 36.75 9.82491 36.75C12.3817 36.75 14.462 34.6894 14.462 32.1562C14.462 29.6231 12.3817 27.5625 9.82491 27.5625C8.59773 27.5625 7.43485 28.0468 6.58238 28.875H9.84066C10.2036 28.875 10.4969 29.169 10.4969 29.5312V34.7812C10.4969 35.1435 10.2036 35.4375 9.84066 35.4375H6.58238Z" fill="black"/>
</svg>
