<svg width="42" height="42" viewBox="0 0 42 42" fill="none" xmlns="http://www.w3.org/2000/svg">
<g clip-path="url(#clip0_29_94)">
<path d="M36.75 16.406H29.5312V9.34214L30.1219 8.16811C30.1772 8.05706 30.2 7.93259 30.1875 7.80914L29.5312 1.24664C29.5149 1.0842 29.4386 0.933678 29.3173 0.824466C29.196 0.715254 29.0383 0.655193 28.875 0.656012H26.25C26.0867 0.655193 25.929 0.715254 25.8077 0.824466C25.6864 0.933678 25.6101 1.0842 25.5938 1.24664L24.9375 7.80914C24.9252 7.9328 24.9479 8.05743 25.0031 8.16876L25.5938 9.34214V16.406H20.3438V11.4743C21.3635 10.968 22.2152 10.178 22.7966 9.19913C23.378 8.2203 23.6643 7.09437 23.6211 5.95671C23.5778 4.81906 23.2069 3.71811 22.5528 2.78626C21.8988 1.8544 20.9895 1.13131 19.9342 0.703918C19.8346 0.663482 19.7265 0.648156 19.6196 0.659286C19.5126 0.670417 19.41 0.707664 19.3208 0.76775C19.2316 0.827836 19.1586 0.90892 19.1081 1.00387C19.0576 1.09882 19.0312 1.20472 19.0312 1.31226V5.83054L17.7188 6.70532L16.4062 5.83054V1.31226C16.4062 1.20246 16.3786 1.09442 16.326 0.99804C16.2734 0.90166 16.1975 0.82002 16.1051 0.760597C16.0128 0.701175 15.907 0.66587 15.7975 0.657917C15.688 0.649964 15.5783 0.669616 15.4783 0.715074L15.4238 0.740012C14.3815 1.17924 13.4872 1.90854 12.8473 2.8412C12.2074 3.77386 11.8487 4.87066 11.8139 6.00122C11.7792 7.13178 12.0698 8.24854 12.6512 9.21876C13.2326 10.189 14.0804 10.9718 15.0938 11.4743V16.406H5.25C4.03214 16.4076 2.86461 16.8921 2.00345 17.7532C1.1423 18.6144 0.657813 19.7819 0.65625 20.9998V33.4685C0.65625 34.1647 0.932812 34.8324 1.42509 35.3247C1.91738 35.8169 2.58506 36.0935 3.28125 36.0935H38.7188C39.4149 36.0935 40.0826 35.8169 40.5749 35.3247C41.0672 34.8324 41.3438 34.1647 41.3438 33.4685V20.9998C41.3422 19.7819 40.8577 18.6144 39.9965 17.7532C39.1354 16.8921 37.9679 16.4076 36.75 16.406ZM26.8406 1.96851H28.2778L28.8573 7.75139L28.4694 8.53101H26.6556L26.2618 7.75139L26.8406 1.96851ZM26.9062 9.84351H28.2188V16.406H26.9062V9.84351ZM15.9954 10.4427C15.2279 10.1324 14.5585 9.62045 14.058 8.96099C13.5575 8.30155 13.2445 7.51909 13.1521 6.69639C13.0597 5.87368 13.1914 5.0413 13.5332 4.28727C13.8749 3.53323 14.4142 2.88558 15.0938 2.41279V6.18164C15.0937 6.28965 15.1204 6.396 15.1713 6.49124C15.2223 6.58649 15.2959 6.66769 15.3858 6.72764L17.3545 8.04014C17.4624 8.11209 17.5891 8.15048 17.7188 8.15048C17.8484 8.15048 17.9751 8.11209 18.083 8.04014L20.0517 6.72764C20.1416 6.66769 20.2152 6.58649 20.2662 6.49124C20.3171 6.396 20.3438 6.28965 20.3438 6.18164V2.40886C21.023 2.8824 21.5617 3.53055 21.9031 4.28488C22.2445 5.03921 22.3759 5.87172 22.2834 6.69453C22.1909 7.51734 21.878 8.29991 21.3777 8.95962C20.8773 9.61934 20.2081 10.1317 19.4408 10.4427C19.3197 10.4918 19.2161 10.5759 19.1431 10.6843C19.0701 10.7927 19.0312 10.9204 19.0312 11.051V16.406H16.4062V11.051C16.4062 10.9202 16.3671 10.7924 16.2939 10.684C16.2207 10.5756 16.1167 10.4916 15.9954 10.4427ZM38.7188 34.781H3.28125C2.93315 34.781 2.59931 34.6427 2.35317 34.3966C2.10703 34.1504 1.96875 33.8166 1.96875 33.4685V28.2185H40.0312V33.4685C40.0312 33.8166 39.893 34.1504 39.6468 34.3966C39.4007 34.6427 39.0668 34.781 38.7188 34.781ZM40.0312 26.906H1.96875V20.9998C1.96979 20.1298 2.31583 19.2958 2.93096 18.6807C3.54608 18.0656 4.38008 17.7196 5.25 17.7185H36.75C37.6199 17.7196 38.4539 18.0656 39.069 18.6807C39.6842 19.2958 40.0302 20.1298 40.0312 20.9998V26.906Z" fill="black"/>
<path d="M36.75 29.5312H5.25C4.72786 29.5312 4.2271 29.7387 3.85788 30.1079C3.48867 30.4771 3.28125 30.9779 3.28125 31.5C3.28125 32.0221 3.48867 32.5229 3.85788 32.8921C4.2271 33.2613 4.72786 33.4688 5.25 33.4688H36.75C37.2721 33.4688 37.7729 33.2613 38.1421 32.8921C38.5113 32.5229 38.7188 32.0221 38.7188 31.5C38.7188 30.9779 38.5113 30.4771 38.1421 30.1079C37.7729 29.7387 37.2721 29.5312 36.75 29.5312ZM36.75 32.1562H5.25C5.07595 32.1562 4.90903 32.0871 4.78596 31.964C4.66289 31.841 4.59375 31.674 4.59375 31.5C4.59375 31.326 4.66289 31.159 4.78596 31.036C4.90903 30.9129 5.07595 30.8438 5.25 30.8438H36.75C36.924 30.8438 37.091 30.9129 37.214 31.036C37.3371 31.159 37.4062 31.326 37.4062 31.5C37.4062 31.674 37.3371 31.841 37.214 31.964C37.091 32.0871 36.924 32.1562 36.75 32.1562Z" fill="black"/>
<path d="M36.75 21.6562C36.3606 21.6562 35.98 21.7717 35.6562 21.988C35.3325 22.2044 35.0801 22.5119 34.9311 22.8716C34.7821 23.2313 34.7431 23.6272 34.8191 24.0091C34.895 24.391 35.0826 24.7418 35.3579 25.0171C35.6332 25.2925 35.984 25.48 36.3659 25.5559C36.7478 25.6319 37.1437 25.5929 37.5034 25.4439C37.8631 25.2949 38.1706 25.0425 38.387 24.7188C38.6033 24.395 38.7188 24.0144 38.7188 23.625C38.7188 23.1029 38.5113 22.6021 38.1421 22.2329C37.7729 21.8637 37.2721 21.6562 36.75 21.6562ZM36.75 24.2812C36.6202 24.2812 36.4933 24.2428 36.3854 24.1707C36.2775 24.0985 36.1934 23.996 36.1437 23.8761C36.094 23.7562 36.081 23.6243 36.1064 23.497C36.1317 23.3697 36.1942 23.2527 36.286 23.161C36.3777 23.0692 36.4947 23.0067 36.622 22.9814C36.7493 22.956 36.8812 22.969 37.0011 23.0187C37.1211 23.0684 37.2235 23.1525 37.2957 23.2604C37.3678 23.3683 37.4063 23.4952 37.4063 23.625C37.4063 23.799 37.3371 23.966 37.214 24.089C37.091 24.2121 36.924 24.2812 36.75 24.2812Z" fill="black"/>
<path d="M31.5 21.6562C31.1106 21.6562 30.73 21.7717 30.4062 21.988C30.0825 22.2044 29.8301 22.5119 29.6811 22.8716C29.5321 23.2313 29.4931 23.6272 29.5691 24.0091C29.645 24.391 29.8326 24.7418 30.1079 25.0171C30.3832 25.2925 30.734 25.48 31.1159 25.5559C31.4978 25.6319 31.8937 25.5929 32.2534 25.4439C32.6131 25.2949 32.9206 25.0425 33.137 24.7188C33.3533 24.395 33.4688 24.0144 33.4688 23.625C33.4688 23.1029 33.2613 22.6021 32.8921 22.2329C32.5229 21.8637 32.0221 21.6562 31.5 21.6562ZM31.5 24.2812C31.3702 24.2812 31.2433 24.2428 31.1354 24.1707C31.0275 24.0985 30.9434 23.996 30.8937 23.8761C30.844 23.7562 30.831 23.6243 30.8564 23.497C30.8817 23.3697 30.9442 23.2527 31.036 23.161C31.1277 23.0692 31.2447 23.0067 31.372 22.9814C31.4993 22.956 31.6312 22.969 31.7511 23.0187C31.8711 23.0684 31.9735 23.1525 32.0457 23.2604C32.1178 23.3683 32.1563 23.4952 32.1563 23.625C32.1563 23.799 32.0871 23.966 31.964 24.089C31.841 24.2121 31.674 24.2812 31.5 24.2812Z" fill="black"/>
<path d="M20.3438 37.4062H21.6562V41.3438H20.3438V37.4062Z" fill="black"/>
<path d="M7.21875 37.4062H8.53125V41.3438H7.21875V37.4062Z" fill="black"/>
<path d="M13.7812 37.4062H15.0938V41.3438H13.7812V37.4062Z" fill="black"/>
<path d="M26.9062 37.4062H28.2188V41.3438H26.9062V37.4062Z" fill="black"/>
<path d="M33.4688 37.4062H34.7812V41.3438H33.4688V37.4062Z" fill="black"/>
</g>
<defs>
<clipPath id="clip0_29_94">
<rect width="42" height="42" fill="white"/>
</clipPath>
</defs>
</svg>
