<svg width="50" height="40" viewBox="0 0 50 40" fill="none" xmlns="http://www.w3.org/2000/svg">
<path d="M47.2257 21.507H35.7066V17.1987C36.2132 17.0993 36.5967 16.6526 36.5967 16.1174V14.8862H39.0033C39.7923 14.8862 40.4342 14.2444 40.4342 13.4554V10.7345L43.0367 2.71553C43.0453 2.68907 43.0524 2.66221 43.0579 2.63497C43.1911 1.98184 43.0365 1.28545 42.6546 0.817872C42.3653 0.46377 41.9746 0.26875 41.5544 0.26875H39.171C39.1698 0.26875 39.1686 0.26875 39.1675 0.26875H30.2639C29.755 0.26875 29.3273 0.666212 29.2903 1.17363L29.2526 1.68672L29.0008 0.935255C28.8675 0.536524 28.4955 0.26875 28.0751 0.26875H25.2799C24.8528 0.26875 24.4577 0.469141 24.1673 0.833107C23.7824 1.31563 23.6369 2.02559 23.7874 2.68614C23.7942 2.71602 23.8029 2.74542 23.8133 2.77422L26.71 10.7475V13.4555C26.71 14.2445 27.3519 14.8863 28.1409 14.8863H30.6796V16.1175C30.6796 16.6527 31.063 17.0995 31.5696 17.1988V21.5071H12.424V11.6782C12.6155 11.7127 12.8121 11.7318 13.0133 11.7318C13.2145 11.7318 13.4112 11.7127 13.6026 11.6782V19.3486C13.6026 19.7571 13.9337 20.0882 14.3422 20.0882C14.7507 20.0882 15.0819 19.7571 15.0819 19.3486V11.5327L17.7301 14.181C17.8745 14.3253 18.0639 14.3976 18.2532 14.3976C18.4424 14.3976 18.6318 14.3253 18.7762 14.181C19.0651 13.892 19.0651 13.4239 18.7762 13.1349L15.8191 10.1778C16.0139 9.86828 16.1586 9.52463 16.2426 9.15783H20.4236C20.8321 9.15783 21.1632 8.82668 21.1632 8.41818C21.1632 8.00968 20.8321 7.67853 20.4236 7.67853H16.2427C16.1587 7.31173 16.014 6.96798 15.8192 6.65851L18.7763 3.70137C19.0652 3.41241 19.0652 2.94424 18.7763 2.65528C18.4873 2.36651 18.0192 2.36651 17.7302 2.65528L14.7731 5.61241C14.4636 5.41759 14.1199 5.27286 13.7531 5.18888V1.0082C13.7531 0.599708 13.4219 0.268555 13.0134 0.268555C12.6049 0.268555 12.2738 0.599708 12.2738 1.0082V5.18907C11.907 5.27306 11.5633 5.41778 11.2538 5.61261L8.2966 2.65557C8.00763 2.3668 7.53947 2.3668 7.2505 2.65557C6.96164 2.94454 6.96164 3.4127 7.2505 3.70167L10.2076 6.6588C10.0128 6.96828 9.86809 7.31203 9.7841 7.67882H5.60314C5.19464 7.67882 4.86349 8.00998 4.86349 8.41847C4.86349 8.82697 5.19464 9.15812 5.60314 9.15812H9.7841C9.86809 9.52492 10.0128 9.86857 10.2076 10.178L7.2505 13.1352C6.96164 13.4241 6.96164 13.8923 7.2505 14.1813C7.39494 14.3256 7.58429 14.3979 7.77355 14.3979C7.96281 14.3979 8.15216 14.3256 8.2966 14.1813L10.9447 11.5331V21.5072H2.77442C1.24463 21.507 0 22.7516 0 24.2813V36.9565C0 38.4864 1.24463 39.7309 2.77442 39.7309H4.34161H45.6854H47.2256C48.7555 39.7309 50 38.4863 50 36.9565V24.2813C50.0001 22.7516 48.7555 21.507 47.2257 21.507ZM31.4191 13.4069H28.1892V11.3571H33.4172C33.8257 11.3571 34.1568 11.0259 34.1568 10.6174C34.1568 10.2089 33.8257 9.87775 33.4172 9.87775H27.9679L25.2218 2.31885C25.1711 2.04112 25.2667 1.81797 25.3291 1.74795H27.713L28.9121 5.32677C29.0338 5.69044 29.3984 5.92003 29.7789 5.87179C30.1594 5.82384 30.4558 5.51153 30.4836 5.12931L30.7314 1.74795H38.1805L36.6688 6.76671C36.551 7.15783 36.7726 7.57042 37.1637 7.6883C37.2349 7.70968 37.3067 7.71984 37.3773 7.71984C37.6951 7.71984 37.9888 7.51339 38.0852 7.19327L39.7255 1.74795H41.5051C41.5654 1.81621 41.6592 2.03282 41.6148 2.3045L39.1569 9.87775H36.9002C36.4917 9.87775 36.1605 10.2089 36.1605 10.6174C36.1605 11.0259 36.4917 11.3571 36.9002 11.3571H38.9549V13.4069H35.857H31.4191ZM32.3093 15.7404H32.159V14.8861H35.1175V15.7404H34.9671H32.3093ZM34.2273 17.2197V21.507H33.0489V17.2197H34.2273ZM11.1839 8.3217C11.2067 7.8881 11.3799 7.49484 11.6532 7.19191C11.678 7.17277 11.7021 7.15255 11.7247 7.1299C11.7474 7.10724 11.7677 7.08302 11.7868 7.05831C12.0896 6.78507 12.4826 6.61193 12.9159 6.58898C12.9478 6.59318 12.9801 6.59611 13.0132 6.59611C13.0462 6.59611 13.0785 6.59318 13.1105 6.58898C13.5439 6.61183 13.937 6.78507 14.2397 7.05831C14.2588 7.08302 14.279 7.10714 14.3017 7.1298C14.3243 7.15246 14.3485 7.17267 14.3732 7.19181C14.6466 7.49464 14.8198 7.888 14.8426 8.3216C14.8385 8.35334 14.8356 8.38547 14.8356 8.41838C14.8356 8.45129 14.8385 8.48342 14.8426 8.51515C14.8199 8.94865 14.6466 9.34201 14.3733 9.64475C14.3486 9.66389 14.3244 9.6841 14.3018 9.70676C14.2791 9.72941 14.2588 9.75363 14.2397 9.77834C13.9143 10.072 13.485 10.2526 13.0132 10.2526C12.5415 10.2526 12.1122 10.0721 11.7869 9.77844C11.7678 9.75373 11.7476 9.72951 11.7248 9.70686C11.7022 9.6842 11.6781 9.66389 11.6532 9.64484C11.3799 9.34201 11.2068 8.94875 11.1839 8.51525C11.188 8.48351 11.1909 8.45138 11.1909 8.41847C11.1909 8.38556 11.188 8.35334 11.1839 8.3217ZM48.5208 36.9565C48.5208 37.6707 47.9397 38.2516 47.2257 38.2516H46.4252V35.4816C46.4252 34.9425 45.9867 34.5041 45.4476 34.5041H12.2288C11.8203 34.5041 11.4892 34.8352 11.4892 35.2437C11.4892 35.6522 11.8203 35.9834 12.2288 35.9834H44.9459V38.2516H5.08136V35.9834H9.22101C9.62951 35.9834 9.96066 35.6522 9.96066 35.2437C9.96066 34.8352 9.62951 34.5041 9.22101 34.5041H4.5795C4.04044 34.5041 3.60196 34.9425 3.60196 35.4816V38.2516H2.77442C2.06026 38.2516 1.4793 37.6706 1.4793 36.9565V24.2813C1.4793 23.5671 2.06036 22.9863 2.77442 22.9863H32.3092H34.967H47.2257C47.9398 22.9863 48.5208 23.5672 48.5208 24.2813V36.9565Z" fill="black"/>
<path d="M42.9564 33.3206C43.3649 33.3206 43.6961 32.9895 43.6961 32.581C43.6961 32.1725 43.3649 31.8413 42.9564 31.8413C42.5479 31.8413 42.2168 32.1725 42.2168 32.581C42.2168 32.9895 42.5479 33.3206 42.9564 33.3206Z" fill="black"/>
<path d="M40.2768 33.3206C40.6853 33.3206 41.0164 32.9895 41.0164 32.581C41.0164 32.1725 40.6853 31.8413 40.2768 31.8413C39.8683 31.8413 39.5371 32.1725 39.5371 32.581C39.5371 32.9895 39.8683 33.3206 40.2768 33.3206Z" fill="black"/>
<path d="M4.34121 33.3206C4.74971 33.3206 5.08086 32.9895 5.08086 32.581C5.08086 32.1725 4.74971 31.8413 4.34121 31.8413C3.93271 31.8413 3.60156 32.1725 3.60156 32.581C3.60156 32.9895 3.93271 33.3206 4.34121 33.3206Z" fill="black"/>
<path d="M25.0001 26.0337C23.5591 26.0337 22.3867 27.2061 22.3867 28.6471C22.3867 30.0881 23.5591 31.2605 25.0001 31.2605C26.4411 31.2605 27.6135 30.0881 27.6135 28.6471C27.6135 27.2061 26.4411 26.0337 25.0001 26.0337ZM25.0001 29.7813C24.3748 29.7813 23.866 29.2725 23.866 28.6472C23.866 28.0219 24.3748 27.5131 25.0001 27.5131C25.6254 27.5131 26.1342 28.0219 26.1342 28.6472C26.1342 29.2725 25.6254 29.7813 25.0001 29.7813Z" fill="black"/>
</svg>
